/* XPM */
static char *b0adc3a05e414deaa2096f48d1cf8feaMLSMYKD8HTlFpPyH[] = {
/* columns rows colors chars-per-pixel */
"32 32 13 1 ",
"  c None",
". c #281E0B",
"X c #082520",
"o c #092D2F",
"O c #0E3F36",
"+ c #493615",
"@ c #684E1E",
"# c #156355",
"$ c #896727",
"% c #1E8A77",
"& c #2BC7AC",
"* c #33EBCB",
"= c #A4FDF0",
/* pixels */
"                                ",
"                                ",
"                                ",
"                                ",
"                                ",
"                      OOOOO     ",
"                     o====o     ",
"                    o=====o     ",
"                   o===&==o     ",
"                  o===&===o     ",
"                 o===&**=o      ",
"                o===&***o       ",
"               o***&***o        ",
"     XX       o***&***o         ",
"     X#X     o***&***o          ",
"     X##X   o***&***o           ",
"     X###X o***%***o            ",
"      X#%%oo**%***o             ",
"      X%%%X%*#***o              ",
"       X%%X%#***o               ",
"       X%%%XOO*o                ",
"        X%%%XXX                 ",
"       +@@%%%%#X                ",
"      +@@@o%%###X               ",
"     +$$@. XX####X              ",
"    +$$$.    XX###X             ",
"  XX$$$.       XXXX             ",
" X%%@$.                         ",
"X%%%%X                          ",
"X%%%%X                          ",
" X%%X                           ",
"  XX                            "
};
